# xmcd
#
# Track frame offsets: 
#        150
#        14816
#        30452
#        50229
#        67492
#        83138
#        98010
#        111295
#        127935
#        146630
#        163251
#        183671
#        198007
#        214574
#        230773
#
# Disc length: 3286 seconds
#
# Revision: 1
# Processed by: cddbd v1.5.2PL0 Copyright (c) Steve Scherf et al.
# Submitted via: ExactAudioCopy v1.3
#
DISCID=df0cd40f
DTITLE=Donato - Angst
DYEAR=2009
DGENRE=Hip-Hop/Rap
TTITLE0=Neue Welt
TTITLE1=Könnt ihr mich hören
TTITLE2=Lebe deinen Traum (feat. Inferno79)
TTITLE3=An mir vorbei
TTITLE4=Lichtblick
TTITLE5=Du fehlst
TTITLE6=Auf der Flucht
TTITLE7=Elemente (feat. Morlockk Dilemma, Inferno79 and Absztrakkt)
TTITLE8=Das Leben geht weiter (feat. Wuakyla)
TTITLE9=Macht's euch gemütlich
TTITLE10=Freundschaft
TTITLE11=Über der Stadt
TTITLE12=Angst
TTITLE13=Mein Leben
TTITLE14=Zepter (feat. Soundbwoy Boogie)
EXTD=
EXTT0=
EXTT1=
EXTT2=
EXTT3=
EXTT4=
EXTT5=
EXTT6=
EXTT7=
EXTT8=
EXTT9=
EXTT10=
EXTT11=
EXTT12=
EXTT13=
EXTT14=
PLAYORDER=
